<?xml version="1.0" encoding="UTF-8" standalone="no"?>
<!-- Created with Inkscape (http://www.inkscape.org/) -->

<svg
   xmlns:dc="http://purl.org/dc/elements/1.1/"
   xmlns:cc="http://creativecommons.org/ns#"
   xmlns:rdf="http://www.w3.org/1999/02/22-rdf-syntax-ns#"
   xmlns:svg="http://www.w3.org/2000/svg"
   xmlns="http://www.w3.org/2000/svg"
   xmlns:sodipodi="http://sodipodi.sourceforge.net/DTD/sodipodi-0.dtd"
   xmlns:inkscape="http://www.inkscape.org/namespaces/inkscape"
   width="100"
   height="100"
   id="svg177175"
   version="1.1"
   inkscape:version="0.91 r13725"
   sodipodi:docname="atom.svg">
  <defs
     id="defs177177" />
  <sodipodi:namedview
     id="base"
     pagecolor="#ffffff"
     bordercolor="#666666"
     borderopacity="1.0"
     inkscape:pageopacity="0.0"
     inkscape:pageshadow="2"
     inkscape:zoom="5.4497817"
     inkscape:cx="-1.3956481"
     inkscape:cy="50.083533"
     inkscape:document-units="px"
     inkscape:current-layer="layer1"
     showgrid="false"
     fit-margin-top="0"
     fit-margin-left="0"
     fit-margin-right="0"
     fit-margin-bottom="0"
     inkscape:window-width="1680"
     inkscape:window-height="956"
     inkscape:window-x="0"
     inkscape:window-y="1"
     inkscape:window-maximized="1"
     units="px" />
  <metadata
     id="metadata177180">
    <rdf:RDF>
      <cc:Work
         rdf:about="">
        <dc:format>image/svg+xml</dc:format>
        <dc:type
           rdf:resource="http://purl.org/dc/dcmitype/StillImage" />
        <dc:title></dc:title>
      </cc:Work>
    </rdf:RDF>
  </metadata>
  <g
     inkscape:label="Layer 1"
     inkscape:groupmode="layer"
     id="layer1"
     transform="translate(-406.58496,-431.02104)">
    <rect
       style="opacity:1;fill:#cccccc;fill-opacity:1;stroke:none;stroke-width:1;stroke-miterlimit:4;stroke-dasharray:4, 4;stroke-dashoffset:0;stroke-opacity:1"
       id="rect21"
       width="100"
       height="100"
       x="406.58496"
       y="431.02103" />
    <g
       id="g3349"
       transform="matrix(0.99825469,0,0,0.99825469,6.9769536,0.92680325)">
      <path
         inkscape:connector-curvature="0"
         id="path563"
         d="m 473.93877,457.38625 c 5.8496,-2.00683 11.30859,-3.11035 14.77538,-3.12499 -3.21776,-0.13184 -8.71093,0.98144 -14.77538,3.12499 z m -55.89356,32.2754 c 6.63575,-5.67871 15.9375,-12.16797 26.66504,-18.35938 10.72755,-6.19629 21.00099,-11.00586 29.22852,-13.91602 -8.36426,2.87598 -18.63281,7.62209 -29.30665,13.78419 -10.66893,6.16211 -19.91211,12.68066 -26.58691,18.49121 z m -9.7168,10.71289 c 1.74316,-2.98828 5.16114,-6.69923 9.81934,-10.75195 -4.88281,4.1748 -8.32519,7.90526 -9.81934,10.75195 z m 85.09278,-44.28223 c -0.7373,-1.2793 -2.5293,-1.87988 -5.1416,-1.87011 1.875,0.0781 3.16895,0.58105 3.73047,1.54296 2.80761,4.87305 -13.76954,19.69238 -37.02637,33.11524 -23.25195,13.42774 -44.375,20.37596 -47.1875,15.50781 -0.56153,-0.97169 -0.35157,-2.34375 0.53222,-4.01367 -1.32812,2.26073 -1.7041,4.11621 -0.96191,5.4004 3.12989,5.41502 24.92676,-1.32327 48.68652,-15.04395 23.76465,-13.71584 40.49317,-29.22853 37.36817,-34.63868 z m 0,0"
         style="fill:#736b63;fill-opacity:1;fill-rule:nonzero;stroke:#736b63;stroke-width:0.80472636;stroke-linecap:butt;stroke-linejoin:miter;stroke-miterlimit:4;stroke-opacity:1" />
      <path
         inkscape:connector-curvature="0"
         id="path565"
         d="m 407.3665,456.09231 c 0.74219,-1.2793 2.5293,-1.87988 5.14649,-1.87011 -1.87989,0.0781 -3.17383,0.58105 -3.72559,1.54296 -2.8125,4.87305 13.75976,19.69238 37.0166,33.11524 23.25195,13.42774 44.37989,20.37596 47.1875,15.50781 0.56152,-0.97169 0.35156,-2.34375 -0.52245,-4.01367 1.31835,2.26073 1.69432,4.11621 0.95214,5.4004 -3.125,5.41502 -24.92188,-1.32327 -48.68653,-15.04395 -23.76465,-13.71584 -40.49316,-29.22853 -37.36816,-34.63868 z m 85.10255,44.28223 c -1.75294,-2.98828 -5.16603,-6.69923 -9.82423,-10.75195 4.87793,4.1748 8.3203,7.90526 9.82423,10.75195 z m -9.82423,-10.75195 c -6.63575,-5.67384 -15.94237,-12.16798 -26.66992,-18.35449 -10.72754,-6.1963 -20.99609,-11.00587 -29.22851,-13.91603 8.36426,2.87598 18.63281,7.62207 29.30663,13.78419 10.67383,6.16211 19.917,12.68065 26.5918,18.48633 z m -55.89843,-32.27051 c -5.84962,-2.01173 -10.77149,-3.11036 -14.2334,-3.12988 3.21288,-0.12696 8.16895,0.98631 14.2334,3.12988 z m 0,0"
         style="fill:#736b63;fill-opacity:1;fill-rule:nonzero;stroke:#736b63;stroke-width:0.80472636;stroke-linecap:butt;stroke-linejoin:miter;stroke-miterlimit:4;stroke-opacity:1" />
      <path
         inkscape:connector-curvature="0"
         id="path567"
         d="m 450.39385,431.24856 c -1.4795,0 -2.89551,1.25 -4.18946,3.5205 1.00586,-1.58691 2.08496,-2.45605 3.19825,-2.45605 5.62012,0 10.17577,21.77246 10.17577,48.62305 0,26.8457 -4.55565,48.61816 -10.17577,48.61816 -1.11329,0 -2.20215,-0.86913 -3.20313,-2.46582 1.29395,2.2754 2.71484,3.53027 4.19434,3.53027 6.25487,0 11.31836,-22.24608 11.31836,-49.68261 0,-27.44141 -5.06349,-49.6875 -11.31836,-49.6875 z m -4.19434,95.83984 c -1.71875,-3.00781 -3.22266,-7.81738 -4.4043,-13.88184 1.17676,6.31836 2.68555,11.16211 4.4043,13.88184 z m -4.4043,-13.88184 c -1.59667,-8.58886 -2.56836,-19.8877 -2.56836,-32.2705 0,-12.3877 0.97169,-23.68652 2.56836,-32.2754 -1.68945,8.68654 -2.71972,19.95118 -2.71972,32.2754 0,12.32421 1.03027,23.58399 2.71972,32.2705 z m 0,-64.5459 c 1.18164,-6.06932 2.69044,-10.8789 4.40918,-13.8916 -1.71874,2.71973 -3.23242,7.56836 -4.40918,13.8916 z m 0,0"
         style="fill:#736b63;fill-opacity:1;fill-rule:nonzero;stroke:#736b63;stroke-width:0.80472636;stroke-linecap:butt;stroke-linejoin:miter;stroke-miterlimit:4;stroke-opacity:1" />
      <path
         inkscape:connector-curvature="0"
         id="path569"
         d="m 455.70635,480.6968 c 0.72754,1.25977 0.29297,2.8711 -0.96191,3.59864 -1.26465,0.73242 -2.87599,0.29785 -3.60353,-0.9668 -0.73241,-1.25488 -0.29785,-2.87109 0.96191,-3.59375 1.25978,-0.73242 2.86622,-0.30273 3.59864,0.95215"
         style="fill:#e3ae23;fill-opacity:1;fill-rule:evenodd;stroke:#ffffff;stroke-width:0.15824339;stroke-linecap:butt;stroke-linejoin:miter;stroke-miterlimit:4;stroke-opacity:1" />
      <path
         inkscape:connector-curvature="0"
         id="path571"
         d="m 452.61552,482.23977 c 0.73243,1.25977 0.29785,2.87598 -0.96191,3.59864 -1.25976,0.72754 -2.87109,0.29785 -3.60351,-0.96192 -0.72754,-1.26465 -0.29298,-2.87109 0.9668,-3.60352 1.25976,-0.72753 2.87109,-0.29785 3.59862,0.96192"
         style="fill:#736b63;fill-opacity:1;fill-rule:evenodd;stroke:#ffffff;stroke-width:0.15824339;stroke-linecap:butt;stroke-linejoin:miter;stroke-miterlimit:4;stroke-opacity:1" />
      <path
         inkscape:connector-curvature="0"
         id="path573"
         d="m 449.46611,481.85402 c 0.72754,1.25978 0.29785,2.87598 -0.96191,3.60353 -1.26465,0.72265 -2.87598,0.29296 -3.60351,-0.9668 -0.72755,-1.26466 -0.29785,-2.87598 0.96678,-3.60351 1.25489,-0.72754 2.86622,-0.29787 3.59375,0.9619"
         style="fill:#e3ae23;fill-opacity:1;fill-rule:evenodd;stroke:#ffffff;stroke-width:0.15824339;stroke-linecap:butt;stroke-linejoin:miter;stroke-miterlimit:4;stroke-opacity:1" />
      <path
         inkscape:connector-curvature="0"
         id="path575"
         d="m 447.92315,480.05716 c 0.73241,1.25488 0.29785,2.8662 -0.9668,3.59862 -1.25489,0.72756 -2.86621,0.29297 -3.59864,-0.96191 -0.72754,-1.26464 -0.29296,-2.87597 0.96191,-3.60352 1.26465,-0.73241 2.8711,-0.29785 3.60353,0.95704"
         style="fill:#736b63;fill-opacity:1;fill-rule:evenodd;stroke:#ffffff;stroke-width:0.15824339;stroke-linecap:butt;stroke-linejoin:miter;stroke-miterlimit:4;stroke-opacity:1" />
      <path
         inkscape:connector-curvature="0"
         id="path577"
         d="m 447.85966,477.15676 c 0.72755,1.26465 0.29786,2.8711 -0.96679,3.60351 -1.25977,0.72754 -2.87597,0.29785 -3.59863,-0.96191 -0.72754,-1.26465 -0.29785,-2.87597 0.96191,-3.60351 1.25976,-0.72754 2.8711,-0.29785 3.59864,0.95704"
         style="fill:#e3ae23;fill-opacity:1;fill-rule:evenodd;stroke:#ffffff;stroke-width:0.15824339;stroke-linecap:butt;stroke-linejoin:miter;stroke-miterlimit:4;stroke-opacity:1" />
      <path
         inkscape:connector-curvature="0"
         id="path579"
         d="m 449.08037,474.90579 c 0.72754,1.26463 0.29785,2.87597 -0.96191,3.60351 -1.26465,0.72754 -2.87599,0.29785 -3.60352,-0.9668 -0.73242,-1.25976 -0.29785,-2.87109 0.9668,-3.59864 1.25976,-0.72753 2.86621,-0.29785 3.59863,0.95704"
         style="fill:#736b63;fill-opacity:1;fill-rule:evenodd;stroke:#ffffff;stroke-width:0.15824339;stroke-linecap:butt;stroke-linejoin:miter;stroke-miterlimit:4;stroke-opacity:1" />
      <path
         inkscape:connector-curvature="0"
         id="path581"
         d="m 451.26787,473.94386 c 0.72754,1.25978 0.29785,2.87599 -0.9668,3.59864 -1.25488,0.73243 -2.8711,0.29785 -3.60351,-0.96191 -0.72266,-1.26464 -0.28809,-2.8711 0.96679,-3.60352 1.26465,-0.72753 2.8711,-0.29785 3.60352,0.96192"
         style="fill:#e3ae23;fill-opacity:1;fill-rule:evenodd;stroke:#ffffff;stroke-width:0.15824339;stroke-linecap:butt;stroke-linejoin:miter;stroke-miterlimit:4;stroke-opacity:1" />
      <path
         inkscape:connector-curvature="0"
         id="path583"
         d="m 453.51884,474.0757 c 0.72755,1.25489 0.29786,2.8711 -0.96679,3.59864 -1.25976,0.72753 -2.87598,0.29297 -3.59864,-0.96191 -0.72754,-1.26464 -0.29785,-2.87598 0.96193,-3.60352 1.25976,-0.72754 2.87108,-0.29785 3.59862,0.95703"
         style="fill:#736b63;fill-opacity:1;fill-rule:evenodd;stroke:#ffffff;stroke-width:0.15824339;stroke-linecap:butt;stroke-linejoin:miter;stroke-miterlimit:4;stroke-opacity:1" />
      <path
         inkscape:connector-curvature="0"
         id="path585"
         d="m 455.31572,475.29152 c 0.73243,1.26467 0.29785,2.87598 -0.96191,3.60352 -1.25977,0.73243 -2.8711,0.29785 -3.59864,-0.96679 -0.73242,-1.25977 -0.29785,-2.8711 0.9668,-3.59864 1.25488,-0.72754 2.8662,-0.29785 3.59375,0.95704"
         style="fill:#e3ae23;fill-opacity:1;fill-rule:evenodd;stroke:#ffffff;stroke-width:0.15824339;stroke-linecap:butt;stroke-linejoin:miter;stroke-miterlimit:4;stroke-opacity:1" />
      <path
         inkscape:connector-curvature="0"
         id="path587"
         d="m 456.5413,478.31399 c 0.72755,1.26465 0.29785,2.87597 -0.96679,3.60351 -1.25976,0.73243 -2.8711,0.29785 -3.59864,-0.96679 -0.72753,-1.25977 -0.29785,-2.8711 0.96192,-3.59864 1.25977,-0.72753 2.8711,-0.30272 3.59863,0.95704"
         style="fill:#736b63;fill-opacity:1;fill-rule:evenodd;stroke:#ffffff;stroke-width:0.15824339;stroke-linecap:butt;stroke-linejoin:miter;stroke-miterlimit:4;stroke-opacity:1" />
      <path
         inkscape:connector-curvature="0"
         id="path589"
         d="m 452.36162,478.38235 c 0.72754,1.25488 0.29297,2.87109 -0.96192,3.59863 -1.26464,0.72753 -2.87598,0.29784 -3.60351,-0.96679 -0.73243,-1.25978 -0.29785,-2.8711 0.9668,-3.59864 1.25488,-0.72754 2.86132,-0.29785 3.59375,0.95704"
         style="fill:#e3ae23;fill-opacity:1;fill-rule:evenodd;stroke:#ffffff;stroke-width:0.15824339;stroke-linecap:butt;stroke-linejoin:miter;stroke-miterlimit:4;stroke-opacity:1" />
    </g>
  </g>
</svg>
